PathFileType	4	(X/Y/Z)	/Users/itak/Documents/Research/Walk-IL/dataset/trc/00340_00011.trc
DataRate	CameraRate	NumFrames	NumMarkers	Units	OrigDataRate	OrigDataStartFrame	OrigNumFrames
100.000000	100.000000	4	53	mm	100.000000	408	817
Frame#	Time	RPSI			LPSI			L3			STRN			T10			C7			CLAV			RBAK			LBAK			LSHO			LUPA			LAEL			LAOL			LWTS			LWPS			LFRA			LIFD			LHPS			LHTS			RSHO			RUPA			RAEL			RAOL			RWTS			RWPS			RFRA			RIFD			RHTS			RHPS			RBHD			LFHD			RFHD			LBHD			LHIP			RHIP			RASI			LASI			LKNE			LTHI			LANK			LTIP			LTOE			LMT1			LMT5			LHEE			RKNE			RTHI			RANK			RTIP			RTOE			RMT1			RMT5			RHEE			
		X1	Y1	Z1	X2	Y2	Z2	X3	Y3	Z3	X4	Y4	Z4	X5	Y5	Z5	X6	Y6	Z6	X7	Y7	Z7	X8	Y8	Z8	X9	Y9	Z9	X10	Y10	Z10	X11	Y11	Z11	X12	Y12	Z12	X13	Y13	Z13	X14	Y14	Z14	X15	Y15	Z15	X16	Y16	Z16	X17	Y17	Z17	X18	Y18	Z18	X19	Y19	Z19	X20	Y20	Z20	X21	Y21	Z21	X22	Y22	Z22	X23	Y23	Z23	X24	Y24	Z24	X25	Y25	Z25	X26	Y26	Z26	X27	Y27	Z27	X28	Y28	Z28	X29	Y29	Z29	X30	Y30	Z30	X31	Y31	Z31	X32	Y32	Z32	X33	Y33	Z33	X34	Y34	Z34	X35	Y35	Z35	X36	Y36	Z36	X37	Y37	Z37	X38	Y38	Z38	X39	Y39	Z39	X40	Y40	Z40	X41	Y41	Z41	X42	Y42	Z42	X43	Y43	Z43	X44	Y44	Z44	X45	Y45	Z45	X46	Y46	Z46	X47	Y47	Z47	X48	Y48	Z48	X49	Y49	Z49	X50	Y50	Z50	X51	Y51	Z51	X52	Y52	Z52	X53	Y53	Z53	

409	4.08	562.30322265625	935.3086547851562	-429.6694030761719	520.2962646484375	933.6158447265625	-306.2673034667969	555.0735473632812	990.6563720703125	-358.8546752929688	329.0071411132812	1174.97119140625	-414.9097290039062	559.1795043945312	1109.2880859375	-334.5830993652344	508.7768859863281	1356.198974609375	-326.5552062988281	364.1238708496094	1299.741821289062	-390.5531005859375	580.68359375	1222.09716796875	-377.9180908203125	483.1761169433594	1314.375	-228.9040679931641	383.5612182617188	1330.702880859375	-207.1697082519531	376.9811401367188	1210.640380859375	-138.7043762207031	353.214599609375	1008.148254394531	-127.7929306030273	430.8126831054688	992.1353149414062	-160.2478485107422	255.4704437255859	781.8970336914062	-208.7433166503906	272.8052368164062	764.784423828125	-144.0934295654297	329.6943969726562	904.7716064453125	-126.521354675293	224.3734893798828	625.4824829101562	-222.1053771972656	266.4220581054688	695.5282592773438	-152.7035369873047	225.9644165039062	707.7001953125	-200.8560791015625	513.4625854492188	1350.704223632812	-499.0497436523438	555.6824340820312	1292.832275390625	-552.4539184570312	628.0654907226562	1037.10107421875	-580.3941650390625	600.6976928710938	1023.316528320312	-489.9594116210938	583.1987915039062	789.9287109375	-627.2123413085938	656.560791015625	797.40234375	-649.8770141601562	634.8386840820312	971.6004638671875	-605.2481079101562	632.802001953125	623.6588745117188	-634.0328979492188	603.9989624023438	689.0296630859375	-655.1746826171875	670.4522705078125	712.1553955078125	-656.8816528320312	470.1756286621094	1570.084228515625	-422.4453125	286.6441650390625	1563.75830078125	-322.9810791015625	306.8753051757812	1572.091796875	-421.9455871582031	467.5367736816406	1554.660278320312	-277.6194763183594	412.5619201660156	870.3201904296875	-231.5114288330078	511.2257385253906	892.8588256835938	-559.1159057617188	401.4022521972656	927.2588500976562	-541.0366821289062	311.1013488769531	895.1215209960938	-319.144287109375	463.6077270507812	422.6571044921875	-277.733154296875	431.2784423828125	558.5538940429688	-263.4102172851562	730.3077392578125	88.68854522705078	-191.0680389404297	593.24560546875	239.5103149414062	-229.6900634765625	639.811767578125	33.82419967651367	-364.8846740722656	711.62353515625	33.77141571044922	-347.8791809082031	638.7785034179688	42.67796325683594	-260.2412719726562	795.560791015625	114.2077102661133	-219.839111328125	319.4345703125	466.2475280761719	-625.9826049804688	392.0403442382812	712.5579223632812	-615.4284057617188	292.171875	43.58316421508789	-676.548828125	284.107666015625	353.0656127929688	-639.5997924804688	98.98903656005859	62.45835113525391	-630.0712280273438	151.416259765625	47.11140441894531	-586.7926025390625	191.2036743164062	38.08124923706055	-696.1487426757812	340.321044921875	39.80670547485352	-626.5980834960938	
410	4.09	552.546142578125	936.5795288085938	-436.6800537109375	512.1904296875	933.9999389648438	-312.6650085449219	545.387451171875	991.3160400390625	-366.3579406738281	319.8294677734375	1175.997680664062	-419.1532897949219	551.189697265625	1110.048461914062	-342.0762939453125	501.1822204589844	1356.989868164062	-333.4222106933594	355.7721862792969	1300.659790039062	-395.3104248046875	572.1622924804688	1222.6689453125	-385.8956909179688	476.8601379394531	1315.260864257812	-235.4481506347656	377.4962158203125	1331.76416015625	-212.2385101318359	372.052490234375	1211.687255859375	-143.8488311767578	350.2452697753906	1009.19873046875	-132.64013671875	427.2584838867188	993.7586669921875	-166.3238983154297	256.4917297363281	778.78076171875	-208.6259613037109	275.2874755859375	763.6007080078125	-143.9291381835938	328.6580200195312	905.33544921875	-129.7874450683594	231.4391937255859	620.9840698242188	-217.9842224121094	271.0774230957031	694.02294921875	-150.8635864257812	229.7105407714844	703.70458984375	-198.8166961669922	503.4199523925781	1351.435791015625	-506.1129455566406	544.4868774414062	1293.426147460938	-560.2330932617188	615.68603515625	1037.522094726562	-589.7647705078125	590.3153686523438	1023.895446777344	-498.6196594238281	569.3355102539062	790.2385864257812	-635.046630859375	642.2626342773438	797.540283203125	-659.3523559570312	621.7939453125	971.8497314453125	-614.6022338867188	618.4071044921875	623.90576171875	-642.2315673828125	589.441650390625	689.1864013671875	-662.9531860351562	655.96630859375	712.3404541015625	-666.3797607421875	461.6873474121094	1571.284423828125	-428.746337890625	279.7048645019531	1564.670043945312	-326.2104187011719	298.3034973144531	1573.0849609375	-425.4914245605469	461.1843872070312	1555.684448242188	-284.0343322753906	405.4000854492188	870.4530639648438	-236.6133422851562	499.8153991699219	894.5145874023438	-565.6819458007812	390.440673828125	928.5027465820312	-546.066650390625	303.1113586425781	895.5213623046875	-323.2308654785156	453.0657958984375	422.1943359375	-283.7182312011719	421.56982421875	558.1533203125	-269.255859375	728.2639770507812	95.46087646484375	-194.8720092773438	587.171875	243.0169830322266	-233.7757873535156	639.5072631835938	33.85532379150391	-364.5997009277344	709.999755859375	35.89289855957031	-349.7900085449219	638.0967407226562	42.8349494934082	-260.81787109375	791.5936279296875	123.2548446655273	-225.4923706054688	308.8395690917969	466.7937927246094	-629.0405883789062	380.0308227539062	713.4208984375	-619.3367919921875	291.2106018066406	43.29979705810547	-677.446533203125	275.6407470703125	353.0685424804688	-641.8674926757812	97.33734893798828	57.92162704467773	-631.318115234375	150.0680236816406	44.51733779907227	-587.914794921875	190.5374450683594	35.59819793701172	-697.1849975585938	339.3037414550781	41.07371520996094	-627.3764038085938	
411	4.1	542.8541259765625	938.1691284179688	-443.3994445800781	504.2895202636719	934.6524047851562	-318.8247985839844	535.3402709960938	992.1806030273438	-373.7495727539062	310.5811462402344	1177.208984375	-423.0955505371094	543.0335693359375	1110.963256835938	-349.4243469238281	493.5036315917969	1357.958374023438	-340.1849060058594	347.3574523925781	1301.744384765625	-399.8257141113281	563.5452880859375	1223.44482421875	-393.7292785644531	470.5780944824219	1316.394897460938	-241.8771057128906	371.4811401367188	1333.049926757812	-217.1526184082031	367.2265930175781	1212.969360351562	-148.8377227783203	347.5573425292969	1010.50390625	-137.3331451416016	423.8282470703125	995.67822265625	-172.4714202880859	257.7512512207031	776.1693115234375	-208.4388580322266	278.0997009277344	762.9308471679688	-143.7633972167969	327.90673828125	906.2772216796875	-133.0252532958984	238.7992095947266	617.2252807617188	-213.8700256347656	276.1309814453125	693.1365356445312	-149.0313110351562	233.7830200195312	700.3046264648438	-196.7306518554688	493.1856384277344	1352.347412109375	-512.9915161132812	533.0608520507812	1294.233764648438	-567.8384399414062	602.873046875	1038.154541015625	-599.1986694335938	579.5971069335938	1024.53564453125	-507.3628845214844	554.9768676757812	790.7606811523438	-642.9306030273438	627.407470703125	797.9417724609375	-669.014404296875	608.2489624023438	972.3292846679688	-624.0339965820312	603.6396484375	624.4142456054688	-650.5816040039062	574.4254150390625	689.5713500976562	-670.8161010742188	640.9301147460938	712.7500610351562	-676.0866088867188	453.0382995605469	1572.556640625	-434.9493408203125	272.7408752441406	1565.72314453125	-329.3109741210938	289.6495361328125	1574.196655273438	-428.8893432617188	454.7824401855469	1556.850219726562	-290.3829040527344	398.4567260742188	870.6812133789062	-241.4854736328125	488.3241577148438	896.5747680664062	-571.9951171875	379.5085754394531	929.9822387695312	-550.800537109375	295.2042541503906	896.13134765625	-327.0664367675781	441.4428100585938	421.5982971191406	-289.8750305175781	411.0961303710938	557.6267700195312	-275.2029724121094	725.5970458984375	102.8332290649414	-199.375732421875	580.2415161132812	246.7376403808594	-238.2794494628906	639.149169921875	33.80935287475586	-364.4026184082031	708.0103759765625	38.16330337524414	-352.0788879394531	637.361328125	43.15404891967773	-261.6202392578125	786.7095336914062	132.8772888183594	-232.0843963623047	298.7123107910156	467.4581909179688	-632.388427734375	368.0834045410156	714.928955078125	-623.2349243164062	290.5181884765625	43.08723449707031	-678.3137817382812	267.8242492675781	353.0130004882812	-644.3568115234375	96.05571746826172	54.15656280517578	-632.7802124023438	148.9315795898438	42.66994857788086	-589.190185546875	190.2034301757812	33.69441223144531	-698.3944091796875	338.4529724121094	42.173583984375	-628.08251953125	
412	4.11	533.2655029296875	940.0332641601562	-449.8252563476562	496.6076354980469	935.5481567382812	-324.7583312988281	525.0556640625	993.2051391601562	-380.9621276855469	301.3575744628906	1178.532470703125	-426.7171325683594	534.7220458984375	1111.985961914062	-356.6260681152344	485.7625427246094	1359.066040039062	-346.8369445800781	338.887451171875	1302.946044921875	-404.082763671875	554.8477783203125	1224.390747070312	-401.4218444824219	464.3627319335938	1317.735717773438	-248.1797943115234	365.5549926757812	1334.519653320312	-221.9125061035156	362.5507507324219	1214.47314453125	-153.6310577392578	345.1838989257812	1012.039916992188	-141.8268280029297	420.5680541992188	997.880615234375	-178.6373596191406	259.2180480957031	774.0780639648438	-208.1932678222656	281.2194519042969	762.7562255859375	-143.6167602539062	327.45361328125	907.5634155273438	-136.2050323486328	246.1661834716797	614.2642211914062	-209.8931579589844	281.5143737792969	692.8525390625	-147.2841491699219	238.1291351318359	697.5424194335938	-194.6241760253906	482.7489013671875	1353.407958984375	-519.6629638671875	521.3992309570312	1295.235717773438	-575.2536010742188	589.6366577148438	1038.9833984375	-608.6507568359375	568.5411987304688	1025.240844726562	-516.159423828125	540.1344604492188	791.5005493164062	-650.8728637695312	611.9988403320312	798.602294921875	-678.8355712890625	594.2184448242188	973.036376953125	-633.501953125	588.515625	625.1762084960938	-659.1141357421875	558.9515991210938	690.1875610351562	-678.790771484375	625.33740234375	713.379638671875	-685.9874267578125	444.2348022460938	1573.842895507812	-441.0273132324219	265.7602844238281	1566.889404296875	-332.2685546875	280.9304809570312	1575.39111328125	-432.1249389648438	448.3414916992188	1558.10546875	-296.6381530761719	391.7941284179688	870.9668579101562	-246.1356506347656	476.7956237792969	898.9834594726562	-578.0426025390625	368.6502685546875	931.6627197265625	-555.22412109375	287.4362182617188	896.9014282226562	-330.6319885253906	428.7304077148438	420.8607177734375	-296.0496520996094	399.8941040039062	556.9489135742188	-281.1587524414062	722.1539306640625	110.7340698242188	-204.5944366455078	572.397705078125	250.5918731689453	-243.1960601806641	638.6182861328125	33.59506225585938	-364.3794860839844	705.5584716796875	40.61119842529297	-354.7637939453125	636.4913940429688	43.73429489135742	-262.6996765136719	780.7827758789062	142.9113922119141	-239.5943756103516	289.2273559570312	468.1407775878906	-636.017578125	356.3025207519531	716.9893798828125	-627.1624145507812	290.0139465332031	42.93366241455078	-679.091552734375	260.7149658203125	352.8211669921875	-646.9996948242188	95.09563446044922	51.1042594909668	-634.1323852539062	148.0256195068359	41.42483520507812	-590.3568725585938	190.0530700683594	32.32493591308594	-699.5563354492188	337.7759094238281	43.08130264282227	-628.7243041992188	
